<svg width="33" height="59" viewBox="0 0 33 59" fill="none" xmlns="http://www.w3.org/2000/svg">
    <path d="M18.8484 49.7303L14.2904 45.2554L9.68546 49.7303L14.2904 58.9998L18.8484 49.7303Z" fill="#ED5338"/>
    <path d="M14.2669 18.9121C12.3973 18.9121 10.8308 20.428 10.8308 22.3482C10.8308 24.2179 12.3468 25.7843 14.2669 25.7843C16.1366 25.7843 17.7031 24.2684 17.7031 22.3482C17.6525 20.4786 16.1366 18.9121 14.2669 18.9121Z" fill="#C59368"/>
    <path d="M14.267 5.16846C13.2717 5.67473 0.522522 12.2103 0.522522 22.7041C0.522522 31.679 8.05826 45.2564 8.05826 45.2564L14.3144 39.1811L20.4756 45.2564C20.4756 45.2564 28.0114 31.679 28.0114 22.7041C28.0114 12.2103 15.2149 5.67473 14.267 5.16846ZM18.3903 35.1308L14.267 31.1267L10.1436 35.1308C9.95405 34.5785 7.15777 27.3066 7.15777 22.612C7.15777 16.2145 13.7456 12.6706 14.267 12.3944C14.7409 12.6706 21.3762 16.2145 21.3762 22.612C21.3288 27.3066 18.5799 34.5785 18.3903 35.1308Z" fill="#C59368"/>
    <path d="M27.726 0.000179037L23.0817 4.64453L27.726 9.28888L32.3704 4.64453L27.726 0.000179037Z" fill="#C59368"/>
</svg>
