<svg width="82" height="82" viewBox="0 0 82 82" fill="none" xmlns="http://www.w3.org/2000/svg">
    <path fill-rule="evenodd" clip-rule="evenodd" d="M41.1678 27.1555C33.6797 27.1555 27.5901 21.0659 27.5901 13.5777C27.5901 6.08961 33.6797 0 41.1678 0C48.656 0 54.7456 6.08961 54.7456 13.5777C54.7456 21.0659 48.656 27.1555 41.1678 27.1555ZM41.1678 5.09165C36.4869 5.09165 32.6818 8.9002 32.6818 13.5777C32.6818 18.2553 36.4869 22.0638 41.1678 22.0638C45.8488 22.0638 49.6539 18.2553 49.6539 13.5777C49.6539 8.9002 45.8488 5.09165 41.1678 5.09165ZM65.8293 29.8383C65.0688 30.2903 64.1805 30.5498 63.2317 30.5498C60.4196 30.5498 58.14 28.2702 58.14 25.4582C58.14 22.6461 60.4196 20.3665 63.2317 20.3665C66.0166 20.3665 68.2794 22.6025 68.3227 25.3772C74.6742 29.588 78.7548 36.5905 79.2914 44.1276H79.3552C80.1868 44.1276 80.9641 44.5315 81.4394 45.2138C81.918 45.8927 82.03 46.7651 81.7483 47.5458L74.9594 66.2152C74.5928 67.2199 73.6356 67.8886 72.5663 67.8886H59.8667L58.1095 79.311C57.9194 80.5669 56.8332 81.4664 55.5976 81.4664C55.4686 81.4664 55.3396 81.4562 55.2072 81.4359C53.8189 81.222 52.8651 79.922 53.0789 78.5336L56.0219 59.4026H26.3138L29.2568 78.5336C29.4706 79.9253 28.5168 81.222 27.1285 81.4359C25.7402 81.6633 24.4367 80.6993 24.2262 79.3076L22.4695 67.8886H9.76931C8.70006 67.8886 7.74283 67.2199 7.37623 66.2118L0.587364 47.5424C0.305626 46.7617 0.417643 45.8927 0.896258 45.2104C1.37148 44.5315 2.1488 44.1276 2.98044 44.1276H13.3646C14.5889 36.4427 21.2634 30.5499 29.2873 30.5499H53.0484C61.0723 30.5499 67.7468 36.4427 68.9711 44.1276H74.1872C73.6727 38.4176 70.5894 33.129 65.8293 29.8383ZM66.61 49.2192C66.6154 49.2193 66.6207 49.2193 66.6261 49.2193C66.6314 49.2193 66.6368 49.2193 66.6421 49.2192H75.7197L70.7808 62.797H60.6501L61.5039 57.2471C61.6159 56.5105 61.4021 55.7638 60.9201 55.2003C60.438 54.6368 59.732 54.311 58.9886 54.311H23.3471C22.6037 54.311 21.901 54.6334 21.4156 55.1969C20.9302 55.7604 20.7198 56.5105 20.8318 57.2437L21.6861 62.797H11.5514L6.61248 49.2192H15.6935C15.6989 49.2193 15.7042 49.2193 15.7096 49.2193C15.7149 49.2193 15.7203 49.2193 15.7256 49.2192H66.61ZM63.7838 44.1276C62.6314 39.2679 58.2552 35.6415 53.0484 35.6415H29.2873C24.0804 35.6415 19.7043 39.2679 18.5519 44.1276H63.7838Z" fill="#ED5338"/>
</svg>
