<svg width="82" height="82" viewBox="0 0 82 82" fill="none" xmlns="http://www.w3.org/2000/svg">
    <path fill-rule="evenodd" clip-rule="evenodd" d="M56.0081 0H10.1833C4.56721 0 0 4.56721 0 10.1833V61.0998C0 62.0876 0.570265 62.9888 1.4664 63.4063C1.80754 63.5642 2.17923 63.6456 2.54582 63.6456C3.13136 63.6456 3.71181 63.442 4.17515 63.055L18.7424 50.9165H56.0081C61.6242 50.9165 66.1914 46.3493 66.1914 40.7332V10.1833C66.1914 4.56721 61.6242 0 56.0081 0ZM61.0998 40.7332C61.0998 43.5387 58.8187 45.8248 56.0081 45.8248H17.8208C17.225 45.8248 16.6497 46.0336 16.1914 46.4155L5.09165 55.667V10.1833C5.09165 7.3778 7.37271 5.09165 10.1833 5.09165H56.0081C58.8187 5.09165 61.0998 7.3778 61.0998 10.1833V40.7332ZM17.8208 15.2749H48.3707C49.776 15.2749 50.9165 16.4155 50.9165 17.8208C50.9165 19.2261 49.776 20.3666 48.3707 20.3666H17.8208C16.4155 20.3666 15.2749 19.2261 15.2749 17.8208C15.2749 16.4155 16.4155 15.2749 17.8208 15.2749ZM17.8208 25.4583H38.1874C39.5927 25.4583 40.7332 26.5989 40.7332 28.0041C40.7332 29.4094 39.5927 30.55 38.1874 30.55H17.8208C16.4155 30.55 15.2749 29.4094 15.2749 28.0041C15.2749 26.5989 16.4155 25.4583 17.8208 25.4583ZM68.7373 22.9123C68.7373 21.5071 69.8778 20.3665 71.2831 20.3665C76.8992 20.3665 81.4664 24.9337 81.4664 30.5498V78.9205C81.4664 79.8981 80.9063 80.7891 80.0255 81.2168C79.669 81.3848 79.2923 81.4663 78.9206 81.4663C78.3554 81.4663 77.7902 81.2779 77.3269 80.9113L65.2953 71.283H30.5499C24.9338 71.283 20.3666 66.7158 20.3666 61.0997V58.5539C20.3666 57.1486 21.5071 56.0081 22.9124 56.0081C24.3177 56.0081 25.4583 57.1486 25.4583 58.5539V61.0997C25.4583 63.9052 27.7393 66.1914 30.5499 66.1914H66.1915C66.7668 66.1914 67.332 66.3899 67.78 66.7464L76.3747 73.6201V30.5498C76.3747 27.7443 74.0937 25.4582 71.2831 25.4582C69.8778 25.4582 68.7373 24.3176 68.7373 22.9123Z" fill="#ED5338"/>
</svg>
