<svg width="82" height="75" viewBox="0 0 82 75" fill="none" xmlns="http://www.w3.org/2000/svg">
    <path fill-rule="evenodd" clip-rule="evenodd" d="M21.2361 54.2066H73.7485C77.9526 54.2066 81.3713 50.7879 81.3713 46.5839V7.62274C81.3713 3.4187 77.9526 0 73.7485 0H21.2361C17.032 0 13.6133 3.4187 13.6133 7.62274V46.5839C13.6133 47.0029 13.6473 47.4142 13.7126 47.815C13.5923 48.5882 13.8292 49.4062 14.4234 50.0025C15.6784 52.494 18.2606 54.2066 21.2361 54.2066ZM19.5445 48.4793C19.9938 48.8807 20.5866 49.1248 21.2361 49.1248H73.7485C75.1511 49.1248 76.2894 47.9864 76.2894 46.5839V42.316L60.0241 23.3397C59.8505 23.132 59.6467 23.0935 59.4927 23.0644C59.4481 23.056 59.4077 23.0484 59.3734 23.0376C59.2283 23.0376 58.9466 23.0817 58.7233 23.3459L44.3587 40.5908C43.9009 41.1392 43.234 41.4717 42.5225 41.5021C41.7973 41.5424 41.1131 41.2645 40.6112 40.7601L34.5474 34.6957C34.1169 34.2652 33.7614 34.2652 33.3309 34.6957L19.5445 48.4793ZM18.6952 42.1423L29.7397 31.0977C32.0573 28.7801 35.8278 28.7801 38.1416 31.0977L42.2377 35.1938L54.8201 20.0904C55.9448 18.7418 57.5949 17.9626 59.3467 17.9527C61.2301 17.8479 62.7549 18.7046 63.8895 20.0364L76.2894 34.5034V7.62274C76.2894 6.22015 75.1511 5.08183 73.7485 5.08183H21.2361C19.8335 5.08183 18.6952 6.22015 18.6952 7.62274V42.1423ZM58.0961 74.2833C58.7437 74.4527 59.3976 74.534 60.0378 74.534C63.4155 74.534 66.5048 72.2741 67.4099 68.8423L69.2052 61.5918C69.5408 60.2301 68.7108 58.8549 67.3485 58.5161C65.9868 58.1836 64.6115 59.0106 64.2722 60.3722L62.4838 67.5886C62.1314 68.9267 60.7425 69.7263 59.3976 69.3709L7.03774 55.3481C5.6823 54.9752 4.87275 53.5696 5.22821 52.2079L10.9881 30.1188C11.3435 28.7603 10.5272 27.3713 9.17171 27.019C7.81007 26.6561 6.42423 27.4793 6.07187 28.8347L0.312631 50.9201C-0.74443 54.9585 1.66435 59.139 5.70587 60.2537L58.0961 74.2833ZM30.553 23.7155C26.816 23.7155 23.777 20.6765 23.777 16.9396C23.777 13.2026 26.816 10.1636 30.553 10.1636C34.2899 10.1636 37.3283 13.2026 37.3283 16.9396C37.3283 20.6765 34.2899 23.7155 30.553 23.7155ZM30.553 15.2454C29.6175 15.2454 28.8588 16.0047 28.8588 16.9396C28.8588 17.8744 29.6175 18.6337 30.553 18.6337C31.4878 18.6337 32.2465 17.8744 32.2465 16.9396C32.2465 16.0047 31.4878 15.2454 30.553 15.2454Z" fill="#ED5338"/>
</svg>
