<svg width="82" height="68" viewBox="0 0 82 68" fill="none" xmlns="http://www.w3.org/2000/svg">
    <path fill-rule="evenodd" clip-rule="evenodd" d="M40.7332 0C32.9213 0 26.566 6.35533 26.566 14.1672C26.566 21.9791 32.9213 28.3344 40.7332 28.3344C48.545 28.3344 54.9004 21.9791 54.9004 14.1672C54.9004 6.35549 48.545 0 40.7332 0ZM40.7332 23.561C35.5534 23.561 31.3394 19.347 31.3394 14.1672C31.3394 8.98756 35.5534 4.77342 40.7332 4.77342C45.913 4.77342 50.1269 8.9874 50.1269 14.1672C50.1269 19.347 45.913 23.561 40.7332 23.561ZM5.31663 23.775C5.31663 17.9277 10.0737 13.1707 15.9209 13.1707C21.7682 13.1707 26.5253 17.9277 26.5253 23.775C26.5253 29.6223 21.7681 34.3793 15.9209 34.3793C10.0737 34.3793 5.31647 29.6223 5.31663 23.775ZM10.0899 23.775C10.0899 26.9902 12.7056 29.6059 15.9208 29.6059C19.136 29.6059 21.7517 26.9902 21.7517 23.775C21.7517 20.5598 19.136 17.9441 15.9208 17.9441C12.7056 17.9441 10.0899 20.5598 10.0899 23.775ZM61.5584 35.7088H69.5328C76.113 35.7088 81.4664 41.0622 81.4664 47.6424V60.3903C81.4664 64.3384 78.2544 67.5504 74.3063 67.5504H7.16013C3.21204 67.5504 0 64.3384 0 60.3903V47.6424C0 41.0622 5.35339 35.7088 11.9336 35.7088H19.908C20.9933 35.7088 22.0441 35.8571 23.0442 36.1299C25.0169 32.2519 29.0444 29.5874 33.6852 29.5874H47.7812C52.422 29.5874 56.4495 32.2519 58.4222 36.1299C59.4223 35.8571 60.473 35.7088 61.5584 35.7088ZM21.7517 62.7772V41.5213C21.7517 41.2562 21.7635 40.9937 21.7806 40.7325C21.1833 40.5704 20.5559 40.4824 19.908 40.4824H11.9336C7.98546 40.4824 4.77342 43.6945 4.77342 47.6426V60.3904C4.77342 61.7065 5.8441 62.7772 7.16013 62.7772H21.7517ZM26.5251 62.7772H54.9413V41.5211C54.9413 37.573 51.7293 34.361 47.7812 34.361H33.6852C29.7371 34.361 26.5251 37.573 26.5251 41.5211V62.7772ZM74.3063 62.7772C75.6223 62.7772 76.693 61.7065 76.693 60.3904V47.6424C76.693 43.6943 73.4809 40.4823 69.5328 40.4823H61.5584C60.9104 40.4823 60.2831 40.5704 59.6857 40.7324C59.7029 40.9933 59.7147 41.2559 59.7147 41.5211V62.7772H74.3063ZM54.9411 23.775C54.9411 17.9277 59.6983 13.1707 65.5454 13.1707C71.3927 13.1707 76.1497 17.9277 76.1497 23.775C76.1497 29.6223 71.3927 34.3793 65.5454 34.3793C59.6983 34.3793 54.9412 29.6223 54.9411 23.775ZM59.7145 23.775C59.7145 26.9902 62.3303 29.6059 65.5454 29.6059C68.7606 29.6059 71.3763 26.9902 71.3763 23.775C71.3763 20.5598 68.7606 17.9441 65.5454 17.9441C62.3303 17.9441 59.7147 20.5598 59.7145 23.775Z" fill="#ED5338"/>
</svg>
