<svg width="82" height="82" viewBox="0 0 82 82" fill="none" xmlns="http://www.w3.org/2000/svg">
    <path fill-rule="evenodd" clip-rule="evenodd" d="M23.8671 9.54684C23.8671 4.28271 19.5844 0 14.3203 0C9.05616 0 4.77345 4.28271 4.77345 9.54684C4.77345 14.811 9.05616 19.0937 14.3203 19.0937C19.5844 19.0937 23.8671 14.811 23.8671 9.54684ZM14.3203 14.3203C11.6882 14.3203 9.54687 12.1789 9.54687 9.54684C9.54687 6.91478 11.6882 4.77342 14.3203 4.77342C16.9524 4.77342 19.0937 6.91478 19.0937 9.54684C19.0937 12.1789 16.9524 14.3203 14.3203 14.3203ZM76.693 57.5994C76.693 52.3352 72.4103 48.0525 67.1461 48.0525C61.882 48.0525 57.5993 52.3352 57.5993 57.5994C57.5993 62.8478 61.8565 67.1206 67.099 67.1461H64.7594C58.1792 67.1461 52.8258 72.4995 52.8258 79.0796C52.8258 80.3977 53.8945 81.4663 55.2126 81.4663H79.0797C80.3978 81.4663 81.4664 80.3977 81.4664 79.0796C81.4664 72.4995 76.113 67.1461 69.5328 67.1461H67.1933C72.4358 67.1206 76.693 62.8478 76.693 57.5994ZM67.1461 62.3728C64.5141 62.3728 62.3727 60.2314 62.3727 57.5994C62.3727 54.9673 64.5141 52.8259 67.1461 52.8259C69.7782 52.8259 71.9196 54.9673 71.9196 57.5994C71.9196 60.2314 69.7782 62.3728 67.1461 62.3728ZM14.3202 55.2126C14.3202 51.2645 17.5323 48.0525 21.4804 48.0525C25.4285 48.0525 28.6405 51.2645 28.6405 55.2126C28.6405 58.2285 26.7335 60.9379 23.8952 61.9546C23.879 61.9605 23.8671 61.9769 23.8671 61.9938V62.3728C23.8671 63.6909 22.7985 64.7595 21.4804 64.7595C20.1623 64.7595 19.0937 63.6909 19.0937 62.3728V61.9938C19.0937 59.9663 20.3763 58.1446 22.2855 57.4608C23.2314 57.122 23.8671 56.2184 23.8671 55.2126C23.8671 53.8966 22.7964 52.8259 21.4804 52.8259C20.1643 52.8259 19.0937 53.8966 19.0937 55.2126C19.0937 56.5307 18.025 57.5994 16.7069 57.5994C15.3888 57.5994 14.3202 56.5307 14.3202 55.2126ZM21.4804 71.9195C22.7985 71.9195 23.8671 70.8509 23.8671 69.5328C23.8671 68.2146 22.7985 67.1461 21.4804 67.1461C20.1623 67.1461 19.0937 68.2146 19.0937 69.5328C19.0937 70.8509 20.1623 71.9195 21.4804 71.9195ZM50.7916 57.6942L50.8442 57.7107C50.8615 57.7162 50.8718 57.7198 50.875 57.7215C51.8494 58.0461 52.507 58.9575 52.5078 59.9846C52.5084 61.0117 51.8519 61.9239 50.8778 62.2496C46.2572 63.7898 42.3371 66.9281 39.8248 71.0917C36.0387 77.366 29.1995 81.4664 21.4804 81.4664C9.63611 81.4664 0 71.8303 0 59.986C0 48.1417 9.63611 38.5056 21.4804 38.5056C29.2251 38.5056 36.0665 42.63 39.8423 48.9093C43.8163 55.5191 49.9998 57.4473 50.7916 57.6942ZM21.4804 76.693C27.3598 76.693 32.6895 73.6771 35.7377 68.6256C37.8906 65.0574 40.882 62.1 44.4135 59.9917C40.8832 57.8906 37.8959 54.9362 35.7512 51.369C32.7054 46.3033 27.3706 43.279 21.4804 43.279C12.2682 43.279 4.77342 50.7738 4.77342 59.986C4.77342 69.1982 12.2682 76.693 21.4804 76.693ZM2.38671 33.4141H26.2538C27.5719 33.4141 28.6405 32.3455 28.6405 31.0274C28.6405 24.4472 23.2871 19.0938 16.707 19.0938H14.3203H11.9336C5.35339 19.0938 0 24.4472 0 31.0274C0 32.3455 1.06861 33.4141 2.38671 33.4141ZM11.9336 23.8672H16.707C19.8186 23.8672 22.4731 25.8624 23.4582 28.6406H5.18234C6.16742 25.8624 8.82192 23.8672 11.9336 23.8672ZM64.7594 71.9195C61.6478 71.9195 58.9933 73.9146 58.0082 76.6929H76.284C75.299 73.9146 72.6445 71.9195 69.5328 71.9195H64.7594ZM30.6037 23.7489C35.2094 25.284 39.1295 28.4225 41.6418 32.5859C45.4293 38.863 52.27 42.9608 59.986 42.9608C71.8303 42.9608 81.4664 33.3247 81.4664 21.4804C81.4664 9.63611 71.8303 0 59.986 0C49.9049 0 45.4861 3.98087 41.6243 10.4038C38.0183 16.4013 33.3825 18.0736 31.4028 18.7877C30.4513 19.1309 29.4672 19.4859 29.0714 20.6872C28.649 21.9694 29.3435 23.329 30.6037 23.7489ZM45.7152 12.8634C48.4711 8.27966 51.272 4.77342 59.986 4.77342C69.1982 4.77342 76.693 12.2682 76.693 21.4804C76.693 30.6926 69.1982 38.1874 59.986 38.1874C54.1066 38.1874 48.7769 35.1715 45.7288 30.12C43.5744 26.5498 40.5805 23.5906 37.0423 21.481C39.6988 19.9807 42.9833 17.4072 45.7152 12.8634ZM57.5993 28.6405C56.9884 28.6405 56.3776 28.4075 55.9117 27.9415L50.8487 22.8785C49.9166 21.9464 49.9166 20.4353 50.8487 19.5032C51.7808 18.5711 53.292 18.5711 54.224 19.5032L57.5993 22.8785L65.748 14.7298C66.6801 13.7977 68.1913 13.7977 69.1233 14.7298C70.0553 15.6618 70.0553 17.173 69.1233 18.105L59.2868 27.9415C58.8209 28.4075 58.2101 28.6405 57.5993 28.6405Z" fill="#ED5338"/>
</svg>
