<svg width="555" height="163" viewBox="0 0 555 163" fill="none" xmlns="http://www.w3.org/2000/svg">
    <path d="M24.6237 136.098L37.177 162.412L49.7303 136.098L37.177 123.786L24.6237 136.098Z" fill="#ED5338"/>
    <path d="M37.177 12.9793C34.5215 14.4277 0 32.5334 0 61.744C0 86.6091 20.2784 124.51 20.2784 124.51L37.177 107.612L54.0757 124.51C54.0757 124.51 74.354 86.6091 74.354 61.744C74.354 32.5334 39.8325 14.1863 37.177 12.9793ZM48.2819 96.2655L37.177 85.1607L26.0722 96.2655C25.5894 94.817 18.1057 74.5386 18.1057 61.2611C18.1057 43.3968 35.97 33.4991 37.177 32.7748C38.6255 33.4991 56.2483 43.3968 56.2483 61.2611C56.2483 74.5386 48.7647 94.817 48.2819 96.2655Z" fill="#C59368"/>
    <path d="M74.404 -4.09446e-07L61.6014 12.8025L74.404 25.6051L87.2065 12.8025L74.404 -4.09446e-07Z" fill="#C59368"/>
    <path d="M46.1091 60.5369C46.1091 65.3651 42.2466 69.2277 37.4184 69.2277C32.5902 69.2277 28.7277 65.3651 28.7277 60.5369C28.7277 55.7087 32.5902 51.8462 37.4184 51.8462C42.2466 51.8462 46.1091 55.7087 46.1091 60.5369Z" fill="#C59368"/>
    <path d="M311.528 19.3271C309.289 20.0797 305.31 21.0832 301.579 21.8359C298.096 22.5885 293.371 23.3412 288.645 24.8465C281.183 27.6062 277.203 35.3836 276.706 45.168C276.706 45.6698 276.457 46.4225 276.208 47.1751H276.706C279.69 40.903 287.65 36.638 295.112 36.638C308.294 36.638 317 45.6698 317 59.2175C317 71.009 307.797 83.0514 292.873 83.0514C276.457 83.0514 268 69.5037 268 52.1928C268 33.1256 273.223 22.8394 285.162 17.8218C288.645 16.3165 291.629 15.8147 294.365 15.3129C300.832 14.0585 304.812 13.055 309.041 12.0514L311.528 19.3271ZM292.624 75.2741C301.081 75.2741 307.797 68.7511 307.797 59.7193C307.797 49.9348 302.076 44.1645 292.873 44.1645C286.655 44.1645 279.193 49.1822 276.954 55.4543C276.706 65.9914 282.675 75.2741 292.624 75.2741Z" fill="#562212"/>
    <path d="M330.86 81.0514H323V36.0514H331.842V65.3885C331.842 66.3829 331.596 67.3774 331.351 68.1233C331.596 68.1233 331.842 68.1233 331.842 68.1233L357.14 36.0514H365V81.0514H356.158V51.7144C356.158 50.72 356.404 49.4769 356.649 48.731H356.158L330.86 81.0514Z" fill="#562212"/>
    <path d="M371 76.8338L374.5 70.3675C378 73.352 383.75 75.3416 388.5 75.3416C395.25 75.3416 399.75 72.3571 399.75 67.8805C399.75 64.1499 397 62.409 391.5 62.409H383.75V55.1965H391C395.5 55.1965 398.25 52.7095 398.25 48.9789C398.25 44.9996 395 42.5126 389.25 42.5126C385 42.5126 379.75 44.0048 375.75 47.238L372.25 40.7717C377.75 36.5437 384.25 35.0514 390.5 35.0514C401.25 35.0514 407.5 39.7768 407.5 47.4867C407.5 52.7095 405 56.1913 399.5 58.181V58.4297C405.5 59.1758 409 63.4038 409 69.124C409 77.3312 400.75 83.0514 389.75 83.0514C381.75 82.8027 375 80.3157 371 76.8338Z" fill="#562212"/>
    <path d="M448.053 81.0514V61.6592H423.947V81.0514H415V36.0514H423.947V54.6978H448.053V36.0514H457V81.0514H448.053Z" fill="#562212"/>
    <path d="M506.75 62.0514C506.75 61.0514 507 60.3014 507 59.3014C507 45.5514 500.25 35.0514 485 35.0514C471.75 35.0514 463 45.5514 463 59.3014C463 72.8014 471.75 83.0514 487.5 83.0514C495.25 83.0514 501.75 80.8014 506.25 76.8014L502.75 70.3014C499.25 72.8014 494 75.3014 487.75 75.3014C477.75 75.3014 473 70.0514 472.25 62.0514H506.75ZM485.25 42.5514C493.5 42.5514 497.25 48.0514 498 55.0514H472.25C473.5 48.0514 478.5 42.5514 485.25 42.5514Z" fill="#562212"/>
    <path d="M536.825 42.8848C541.246 42.8848 545.912 44.1087 551.07 47.291C551.07 47.291 553.281 43.1296 554.754 40.6816C549.351 37.0098 543.211 35.0514 536.825 35.0514C522.579 35.0514 513 45.0879 513 58.5514C513 71.7702 522.579 82.0514 537.07 82.0514C544.193 82.0514 550.333 80.0931 555 76.1764L551.561 69.8119C548.123 72.2598 543.211 74.2181 537.807 74.2181C528.719 74.2181 522.088 67.3639 522.088 57.8171C521.597 50.2285 527 42.8848 536.825 42.8848Z" fill="#562212"/>
    <path d="M239.847 17.0514C239.847 20.3014 238.358 22.0514 235.876 22.0514C233.394 22.0514 231.905 20.0514 231.905 17.0514H219C219.248 26.5514 224.956 33.0514 236.124 33.0514C246.547 33.0514 252.504 26.3014 253 17.0514H239.847Z" fill="#562212"/>
    <path d="M212 81.0514V36.0514H227.005C227.005 36.0514 227.005 55.4437 227.005 56.9354C227.005 58.4271 226.759 60.1675 226.759 60.1675H227.497L243.733 36.0514H258V81.0514H242.995V59.9188C242.995 58.4271 243.241 56.9354 243.241 56.9354H242.503L226.267 81.0514H212Z" fill="#562212"/>
    <path d="M181 35.0514C195.5 35.0514 206 45.1935 206 58.5514C206 71.9093 195.25 82.0514 181 82.0514C166.75 82.0514 156 71.9093 156 58.5514C156 45.1935 166.75 35.0514 181 35.0514ZM181 68.1988C186.5 68.1988 190.25 63.9935 190.25 58.5514C190.25 53.1093 186.5 48.9041 181 48.9041C175.75 48.9041 171.75 53.1093 171.75 58.5514C172 63.7462 175.75 68.1988 181 68.1988Z" fill="#562212"/>
    <path d="M137.864 36.0514C137.864 36.0514 125.234 52.4603 124.738 52.9575C124.243 53.7034 123.995 54.2006 123.995 54.2006H123.252C123.252 54.2006 123.005 53.7034 122.509 52.9575C121.519 51.963 108.64 36.0514 108.64 36.0514H97V81.0514H111.364V62.1564C111.364 60.1675 111.117 58.9244 111.117 58.9244H111.86L123.5 72.3498H124.243L135.14 58.9244H135.883C135.883 58.9244 135.636 60.1675 135.636 62.1564V81.0514H150V36.0514H137.864Z" fill="#562212"/>
    <path d="M117.162 114.901C117.162 117.266 116.344 119.121 114.707 120.464C113.07 121.808 110.758 122.531 107.771 122.634V124.522H105.417V122.634C102.43 122.514 100.109 121.783 98.4554 120.439C96.8185 119.095 96 117.249 96 114.901C96 112.537 96.8185 110.682 98.4554 109.339C100.109 107.995 102.43 107.263 105.417 107.144V105.332H107.771V107.144C110.741 107.263 113.045 108.003 114.681 109.364C116.335 110.708 117.162 112.554 117.162 114.901ZM107.771 120.643C110.032 120.507 111.754 119.954 112.935 118.984C114.133 117.998 114.732 116.628 114.732 114.876C114.732 113.158 114.125 111.814 112.91 110.844C111.711 109.857 109.998 109.296 107.771 109.16V120.643ZM98.4554 114.901C98.4554 116.637 99.0545 117.998 100.253 118.984C101.468 119.954 103.189 120.507 105.417 120.643V109.16C103.155 109.296 101.426 109.849 100.227 110.819C99.0461 111.788 98.4554 113.149 98.4554 114.901Z" fill="#562212"/>
    <path d="M126.396 124.012C125.063 124.012 123.865 123.714 122.802 123.118C121.738 122.523 120.903 121.706 120.296 120.669C119.705 119.614 119.41 118.423 119.41 117.096C119.41 115.769 119.705 114.587 120.296 113.549C120.903 112.494 121.738 111.678 122.802 111.099C123.865 110.504 125.063 110.206 126.396 110.206C127.729 110.206 128.919 110.504 129.965 111.099C131.029 111.678 131.855 112.494 132.446 113.549C133.054 114.587 133.357 115.769 133.357 117.096C133.357 118.423 133.054 119.614 132.446 120.669C131.855 121.706 131.029 122.523 129.965 123.118C128.919 123.714 127.729 124.012 126.396 124.012ZM126.396 121.868C127.257 121.868 128.025 121.672 128.7 121.281C129.392 120.873 129.932 120.311 130.32 119.597C130.708 118.865 130.902 118.032 130.902 117.096C130.902 116.16 130.708 115.335 130.32 114.621C129.932 113.889 129.392 113.328 128.7 112.937C128.025 112.545 127.257 112.35 126.396 112.35C125.535 112.35 124.759 112.545 124.067 112.937C123.392 113.328 122.852 113.889 122.447 114.621C122.059 115.335 121.865 116.16 121.865 117.096C121.865 118.032 122.059 118.865 122.447 119.597C122.852 120.311 123.392 120.873 124.067 121.281C124.759 121.672 125.535 121.868 126.396 121.868Z" fill="#562212"/>
    <path d="M143.98 110.206C145.279 110.206 146.444 110.495 147.473 111.074C148.502 111.652 149.304 112.46 149.878 113.498C150.468 114.536 150.764 115.735 150.764 117.096C150.764 118.457 150.468 119.665 149.878 120.72C149.304 121.757 148.502 122.565 147.473 123.144C146.444 123.722 145.279 124.012 143.98 124.012C143.018 124.012 142.132 123.824 141.322 123.45C140.529 123.076 139.854 122.531 139.297 121.817V128.809H136.867V110.334H139.195V112.477C139.735 111.729 140.419 111.167 141.246 110.793C142.073 110.402 142.984 110.206 143.98 110.206ZM143.777 121.868C144.638 121.868 145.406 121.672 146.081 121.281C146.773 120.873 147.313 120.311 147.701 119.597C148.106 118.865 148.308 118.032 148.308 117.096C148.308 116.16 148.106 115.335 147.701 114.621C147.313 113.889 146.773 113.328 146.081 112.937C145.406 112.545 144.638 112.35 143.777 112.35C142.933 112.35 142.166 112.554 141.474 112.962C140.799 113.353 140.259 113.906 139.854 114.621C139.465 115.335 139.271 116.16 139.271 117.096C139.271 118.032 139.465 118.865 139.854 119.597C140.242 120.311 140.782 120.873 141.474 121.281C142.166 121.672 142.933 121.868 143.777 121.868Z" fill="#562212"/>
    <path d="M165.897 110.334L159.391 125.211C158.818 126.589 158.143 127.559 157.366 128.12C156.607 128.681 155.687 128.962 154.607 128.962C153.949 128.962 153.308 128.851 152.683 128.63C152.076 128.426 151.569 128.12 151.164 127.712L152.202 125.874C152.894 126.538 153.696 126.87 154.607 126.87C155.198 126.87 155.687 126.708 156.075 126.385C156.48 126.078 156.843 125.543 157.164 124.777L157.594 123.833L151.671 110.334H154.202L158.885 121.153L163.517 110.334H165.897Z" fill="#562212"/>
    <path d="M183.852 110.334V123.858H181.649V113.983L176.637 122.327H175.574L170.613 113.957V123.858H168.385V110.334H170.891L176.156 119.469L181.573 110.334H183.852Z" fill="#562212"/>
    <path d="M207.809 110.334V123.858H205.379V112.477H197.81V123.858H195.38V110.334H207.809Z" fill="#562212"/>
    <path d="M219.624 110.206C220.923 110.206 222.088 110.495 223.117 111.074C224.147 111.652 224.948 112.46 225.522 113.498C226.113 114.536 226.408 115.735 226.408 117.096C226.408 118.457 226.113 119.665 225.522 120.72C224.948 121.757 224.147 122.565 223.117 123.144C222.088 123.722 220.923 124.012 219.624 124.012C218.662 124.012 217.776 123.824 216.966 123.45C216.173 123.076 215.498 122.531 214.941 121.817V128.809H212.511V110.334H214.84V112.477C215.38 111.729 216.063 111.167 216.89 110.793C217.717 110.402 218.628 110.206 219.624 110.206ZM219.421 121.868C220.282 121.868 221.05 121.672 221.725 121.281C222.417 120.873 222.957 120.311 223.345 119.597C223.75 118.865 223.953 118.032 223.953 117.096C223.953 116.16 223.75 115.335 223.345 114.621C222.957 113.889 222.417 113.328 221.725 112.937C221.05 112.545 220.282 112.35 219.421 112.35C218.578 112.35 217.81 112.554 217.118 112.962C216.443 113.353 215.903 113.906 215.498 114.621C215.11 115.335 214.916 116.16 214.916 117.096C214.916 118.032 215.11 118.865 215.498 119.597C215.886 120.311 216.426 120.873 217.118 121.281C217.81 121.672 218.578 121.868 219.421 121.868Z" fill="#562212"/>
    <path d="M242.064 117.173C242.064 117.36 242.047 117.606 242.013 117.913H231.128C231.28 119.103 231.795 120.065 232.673 120.796C233.567 121.511 234.672 121.868 235.989 121.868C237.592 121.868 238.883 121.324 239.862 120.235L241.203 121.817C240.596 122.531 239.836 123.076 238.925 123.45C238.031 123.824 237.027 124.012 235.913 124.012C234.495 124.012 233.238 123.722 232.141 123.144C231.044 122.548 230.192 121.723 229.584 120.669C228.994 119.614 228.698 118.423 228.698 117.096C228.698 115.786 228.985 114.604 229.559 113.549C230.15 112.494 230.951 111.678 231.964 111.099C232.993 110.504 234.149 110.206 235.432 110.206C236.714 110.206 237.853 110.504 238.849 111.099C239.862 111.678 240.646 112.494 241.203 113.549C241.777 114.604 242.064 115.812 242.064 117.173ZM235.432 112.273C234.267 112.273 233.289 112.63 232.495 113.345C231.719 114.059 231.263 114.995 231.128 116.152H239.735C239.6 115.012 239.136 114.085 238.343 113.37C237.567 112.639 236.596 112.273 235.432 112.273Z" fill="#562212"/>
    <path d="M259.255 121.715V126.997H256.977V123.858H245.763V126.997H243.46V121.715H244.169C245.029 121.664 245.62 121.051 245.94 119.878C246.261 118.704 246.481 117.045 246.599 114.901L246.801 110.334H257.205V121.715H259.255ZM248.826 115.08C248.759 116.781 248.615 118.193 248.396 119.316C248.193 120.422 247.814 121.222 247.257 121.715H254.775V112.477H248.953L248.826 115.08Z" fill="#562212"/>
    <path d="M274.85 110.334V123.858H272.42V112.477H264.851V123.858H262.421V110.334H274.85Z" fill="#562212"/>
    <path d="M286.666 110.206C287.965 110.206 289.129 110.495 290.159 111.074C291.188 111.652 291.99 112.46 292.564 113.498C293.154 114.536 293.45 115.735 293.45 117.096C293.45 118.457 293.154 119.665 292.564 120.72C291.99 121.757 291.188 122.565 290.159 123.144C289.129 123.722 287.965 124.012 286.666 124.012C285.704 124.012 284.818 123.824 284.008 123.45C283.215 123.076 282.539 122.531 281.983 121.817V128.809H279.552V110.334H281.881V112.477C282.421 111.729 283.105 111.167 283.932 110.793C284.759 110.402 285.67 110.206 286.666 110.206ZM286.463 121.868C287.324 121.868 288.092 121.672 288.767 121.281C289.459 120.873 289.999 120.311 290.387 119.597C290.792 118.865 290.994 118.032 290.994 117.096C290.994 116.16 290.792 115.335 290.387 114.621C289.999 113.889 289.459 113.328 288.767 112.937C288.092 112.545 287.324 112.35 286.463 112.35C285.619 112.35 284.851 112.554 284.16 112.962C283.485 113.353 282.945 113.906 282.539 114.621C282.151 115.335 281.957 116.16 281.957 117.096C281.957 118.032 282.151 118.865 282.539 119.597C282.928 120.311 283.468 120.873 284.16 121.281C284.851 121.672 285.619 121.868 286.463 121.868Z" fill="#562212"/>
    <path d="M296.98 110.334H299.41V120.184L307.637 110.334H309.84V123.858H307.41V114.008L299.208 123.858H296.98V110.334Z" fill="#562212"/>
    <path d="M314.557 110.334H316.987V116.075H324.631V110.334H327.061V123.858H324.631V118.193H316.987V123.858H314.557V110.334Z" fill="#562212"/>
    <path d="M331.787 110.334H334.217V120.184L342.444 110.334H344.646V123.858H342.216V114.008L334.014 123.858H331.787V110.334Z" fill="#562212"/>
    <path d="M364.829 110.334V123.858H362.627V113.983L357.615 122.327H356.552L351.59 113.957V123.858H349.363V110.334H351.869L357.134 119.469L362.551 110.334H364.829Z" fill="#562212"/>
    <path d="M374.344 110.206C376.2 110.206 377.618 110.665 378.596 111.584C379.592 112.503 380.09 113.872 380.09 115.693V123.858H377.786V122.072C377.381 122.702 376.799 123.186 376.04 123.527C375.297 123.85 374.411 124.012 373.382 124.012C371.88 124.012 370.673 123.646 369.762 122.914C368.867 122.183 368.42 121.222 368.42 120.031C368.42 118.84 368.851 117.887 369.711 117.173C370.572 116.441 371.939 116.075 373.812 116.075H377.66V115.59C377.66 114.536 377.356 113.728 376.748 113.166C376.141 112.605 375.246 112.324 374.065 112.324C373.272 112.324 372.496 112.46 371.736 112.732C370.977 112.988 370.336 113.336 369.812 113.779L368.8 111.941C369.492 111.38 370.319 110.955 371.281 110.665C372.243 110.359 373.264 110.206 374.344 110.206ZM373.787 122.123C374.715 122.123 375.516 121.919 376.192 121.511C376.867 121.085 377.356 120.49 377.66 119.724V117.836H373.913C371.854 117.836 370.825 118.534 370.825 119.929C370.825 120.609 371.087 121.145 371.61 121.536C372.133 121.928 372.859 122.123 373.787 122.123Z" fill="#562212"/>
    <path d="M394.465 112.477H389.554V123.858H387.124V112.477H382.213V110.334H394.465V112.477Z" fill="#562212"/>
    <path d="M408.481 117.173C408.481 117.36 408.465 117.606 408.431 117.913H397.546C397.698 119.103 398.213 120.065 399.09 120.796C399.984 121.511 401.09 121.868 402.406 121.868C404.009 121.868 405.3 121.324 406.279 120.235L407.621 121.817C407.013 122.531 406.254 123.076 405.343 123.45C404.448 123.824 403.444 124.012 402.33 124.012C400.913 124.012 399.655 123.722 398.558 123.144C397.462 122.548 396.609 121.723 396.002 120.669C395.411 119.614 395.116 118.423 395.116 117.096C395.116 115.786 395.403 114.604 395.976 113.549C396.567 112.494 397.369 111.678 398.381 111.099C399.411 110.504 400.567 110.206 401.849 110.206C403.132 110.206 404.271 110.504 405.267 111.099C406.279 111.678 407.064 112.494 407.621 113.549C408.195 114.604 408.481 115.812 408.481 117.173ZM401.849 112.273C400.685 112.273 399.706 112.63 398.913 113.345C398.137 114.059 397.681 114.995 397.546 116.152H406.153C406.018 115.012 405.553 114.085 404.76 113.37C403.984 112.639 403.014 112.273 401.849 112.273Z" fill="#562212"/>
    <path d="M423.547 110.334V123.858H421.116V112.477H415.345L415.193 115.488C415.109 117.309 414.948 118.831 414.712 120.056C414.476 121.264 414.088 122.234 413.548 122.965C413.008 123.697 412.257 124.063 411.295 124.063C410.856 124.063 410.358 123.986 409.801 123.833L409.953 121.766C410.173 121.817 410.375 121.842 410.561 121.842C411.236 121.842 411.742 121.545 412.08 120.949C412.417 120.354 412.636 119.648 412.738 118.831C412.839 118.015 412.932 116.849 413.016 115.335L413.244 110.334H423.547Z" fill="#562212"/>
    <path d="M440.371 117.173C440.371 117.36 440.354 117.606 440.32 117.913H429.435C429.587 119.103 430.102 120.065 430.979 120.796C431.874 121.511 432.979 121.868 434.295 121.868C435.899 121.868 437.19 121.324 438.168 120.235L439.51 121.817C438.902 122.531 438.143 123.076 437.232 123.45C436.337 123.824 435.333 124.012 434.219 124.012C432.802 124.012 431.545 123.722 430.448 123.144C429.351 122.548 428.499 121.723 427.891 120.669C427.3 119.614 427.005 118.423 427.005 117.096C427.005 115.786 427.292 114.604 427.866 113.549C428.456 112.494 429.258 111.678 430.271 111.099C431.3 110.504 432.456 110.206 433.739 110.206C435.021 110.206 436.16 110.504 437.156 111.099C438.168 111.678 438.953 112.494 439.51 113.549C440.084 114.604 440.371 115.812 440.371 117.173ZM433.739 112.273C432.574 112.273 431.595 112.63 430.802 113.345C430.026 114.059 429.57 114.995 429.435 116.152H438.042C437.907 115.012 437.443 114.085 436.65 113.37C435.873 112.639 434.903 112.273 433.739 112.273Z" fill="#562212"/>
    <path d="M444.141 110.334H446.571V120.184L454.798 110.334H457V123.858H454.57V114.008L446.368 123.858H444.141V110.334ZM450.418 108.573C449.17 108.573 448.199 108.275 447.507 107.68C446.815 107.067 446.461 106.191 446.444 105.051H448.09C448.106 105.681 448.317 106.191 448.722 106.583C449.144 106.957 449.701 107.144 450.393 107.144C451.085 107.144 451.642 106.957 452.064 106.583C452.486 106.191 452.705 105.681 452.722 105.051H454.418C454.401 106.191 454.038 107.067 453.329 107.68C452.621 108.275 451.65 108.573 450.418 108.573Z" fill="#562212"/>
    <path d="M112.884 135.985V153.847H110.403V138.205H100.126V153.847H97.6201V135.985H112.884Z" fill="#562212"/>
    <path d="M130.13 147.162C130.13 147.349 130.113 147.595 130.079 147.902H119.195C119.347 149.092 119.861 150.054 120.739 150.785C121.633 151.5 122.739 151.857 124.055 151.857C125.658 151.857 126.949 151.312 127.928 150.224L129.269 151.806C128.662 152.52 127.903 153.065 126.991 153.439C126.097 153.813 125.093 154 123.979 154C122.561 154 121.304 153.711 120.207 153.133C119.11 152.537 118.258 151.712 117.65 150.658C117.06 149.603 116.765 148.412 116.765 147.085C116.765 145.775 117.051 144.593 117.625 143.538C118.216 142.483 119.017 141.667 120.03 141.088C121.059 140.493 122.215 140.195 123.498 140.195C124.781 140.195 125.92 140.493 126.915 141.088C127.928 141.667 128.713 142.483 129.269 143.538C129.843 144.593 130.13 145.801 130.13 147.162ZM123.498 142.262C122.334 142.262 121.355 142.619 120.562 143.334C119.785 144.048 119.33 144.984 119.195 146.141H127.801C127.666 145.001 127.202 144.074 126.409 143.359C125.633 142.628 124.662 142.262 123.498 142.262Z" fill="#562212"/>
    <path d="M133.9 140.323H136.33V146.064H143.975V140.323H146.405V153.847H143.975V148.182H136.33V153.847H133.9V140.323Z" fill="#562212"/>
    <path d="M158.173 146.804C159.067 147.042 159.759 147.425 160.248 147.953C160.738 148.48 160.983 149.135 160.983 149.917C160.983 150.717 160.713 151.432 160.172 152.061C159.632 152.673 158.881 153.158 157.92 153.516C156.975 153.856 155.911 154.026 154.73 154.026C153.734 154.026 152.756 153.898 151.794 153.643C150.849 153.371 150.005 152.988 149.262 152.495L149.996 150.632C150.638 151.04 151.372 151.364 152.199 151.602C153.026 151.823 153.861 151.933 154.705 151.933C155.852 151.933 156.764 151.738 157.439 151.347C158.131 150.938 158.476 150.394 158.476 149.713C158.476 149.084 158.198 148.599 157.641 148.259C157.101 147.919 156.333 147.748 155.338 147.748H152.882V145.988H155.16C156.072 145.988 156.789 145.826 157.312 145.503C157.835 145.18 158.097 144.737 158.097 144.176C158.097 143.563 157.785 143.087 157.16 142.747C156.553 142.407 155.726 142.236 154.679 142.236C153.346 142.236 151.937 142.585 150.452 143.283L149.794 141.394C151.431 140.561 153.144 140.144 154.933 140.144C156.013 140.144 156.983 140.297 157.844 140.603C158.704 140.91 159.379 141.343 159.869 141.905C160.358 142.466 160.603 143.104 160.603 143.819C160.603 144.482 160.383 145.078 159.945 145.605C159.506 146.132 158.915 146.532 158.173 146.804Z" fill="#562212"/>
    <path d="M176.802 147.162C176.802 147.349 176.785 147.595 176.752 147.902H165.867C166.019 149.092 166.533 150.054 167.411 150.785C168.305 151.5 169.411 151.857 170.727 151.857C172.33 151.857 173.621 151.312 174.6 150.224L175.942 151.806C175.334 152.52 174.575 153.065 173.663 153.439C172.769 153.813 171.765 154 170.651 154C169.233 154 167.976 153.711 166.879 153.133C165.782 152.537 164.93 151.712 164.323 150.658C163.732 149.603 163.437 148.412 163.437 147.085C163.437 145.775 163.723 144.593 164.297 143.538C164.888 142.483 165.689 141.667 166.702 141.088C167.731 140.493 168.887 140.195 170.17 140.195C171.453 140.195 172.592 140.493 173.587 141.088C174.6 141.667 175.385 142.483 175.942 143.538C176.515 144.593 176.802 145.801 176.802 147.162ZM170.17 142.262C169.006 142.262 168.027 142.619 167.234 143.334C166.457 144.048 166.002 144.984 165.867 146.141H174.473C174.338 145.001 173.874 144.074 173.081 143.359C172.305 142.628 171.334 142.262 170.17 142.262Z" fill="#562212"/>
    <path d="M180.572 140.323H183.002V146.064H190.647V140.323H193.077V153.847H190.647V148.182H183.002V153.847H180.572V140.323Z" fill="#562212"/>
    <path d="M203.65 154C202.283 154 201.059 153.703 199.979 153.107C198.916 152.512 198.081 151.695 197.473 150.658C196.866 149.603 196.562 148.412 196.562 147.085C196.562 145.758 196.866 144.576 197.473 143.538C198.081 142.483 198.916 141.667 199.979 141.088C201.059 140.493 202.283 140.195 203.65 140.195C204.865 140.195 205.945 140.442 206.89 140.935C207.852 141.428 208.594 142.143 209.117 143.079L207.27 144.278C206.848 143.631 206.324 143.147 205.7 142.823C205.076 142.5 204.384 142.339 203.624 142.339C202.747 142.339 201.954 142.534 201.245 142.925C200.553 143.317 200.005 143.878 199.599 144.61C199.211 145.324 199.017 146.149 199.017 147.085C199.017 148.038 199.211 148.88 199.599 149.611C200.005 150.326 200.553 150.879 201.245 151.27C201.954 151.661 202.747 151.857 203.624 151.857C204.384 151.857 205.076 151.695 205.7 151.372C206.324 151.049 206.848 150.564 207.27 149.917L209.117 151.091C208.594 152.027 207.852 152.75 206.89 153.26C205.945 153.754 204.865 154 203.65 154Z" fill="#562212"/>
    <path d="M217.478 148.131H214.694V153.847H212.264V140.323H214.694V146.039H217.529L221.883 140.323H224.49L219.402 146.83L224.845 153.847H221.984L217.478 148.131Z" fill="#562212"/>
    <path d="M232.694 154C231.361 154 230.162 153.703 229.099 153.107C228.036 152.512 227.201 151.695 226.593 150.658C226.002 149.603 225.707 148.412 225.707 147.085C225.707 145.758 226.002 144.576 226.593 143.538C227.201 142.483 228.036 141.667 229.099 141.088C230.162 140.493 231.361 140.195 232.694 140.195C234.027 140.195 235.217 140.493 236.263 141.088C237.326 141.667 238.153 142.483 238.744 143.538C239.351 144.576 239.655 145.758 239.655 147.085C239.655 148.412 239.351 149.603 238.744 150.658C238.153 151.695 237.326 152.512 236.263 153.107C235.217 153.703 234.027 154 232.694 154ZM232.694 151.857C233.554 151.857 234.322 151.661 234.997 151.27C235.689 150.862 236.229 150.3 236.617 149.586C237.005 148.854 237.2 148.021 237.2 147.085C237.2 146.149 237.005 145.324 236.617 144.61C236.229 143.878 235.689 143.317 234.997 142.925C234.322 142.534 233.554 142.339 232.694 142.339C231.833 142.339 231.057 142.534 230.365 142.925C229.69 143.317 229.15 143.878 228.745 144.61C228.357 145.324 228.163 146.149 228.163 147.085C228.163 148.021 228.357 148.854 228.745 149.586C229.15 150.3 229.69 150.862 230.365 151.27C231.057 151.661 231.833 151.857 232.694 151.857Z" fill="#562212"/>
    <path d="M243.164 140.323H245.594V150.173L253.821 140.323H256.023V153.847H253.593V143.997L245.392 153.847H243.164V140.323ZM249.442 138.562C248.193 138.562 247.223 138.264 246.531 137.669C245.839 137.056 245.485 136.18 245.468 135.04H247.113C247.13 135.67 247.341 136.18 247.746 136.571C248.168 136.946 248.725 137.133 249.417 137.133C250.108 137.133 250.665 136.946 251.087 136.571C251.509 136.18 251.729 135.67 251.745 135.04H253.441C253.425 136.18 253.062 137.056 252.353 137.669C251.644 138.264 250.674 138.562 249.442 138.562Z" fill="#562212"/>
    <path d="M273.285 154C271.951 154 270.753 153.703 269.69 153.107C268.627 152.512 267.792 151.695 267.184 150.658C266.593 149.603 266.298 148.412 266.298 147.085C266.298 145.758 266.593 144.576 267.184 143.538C267.792 142.483 268.627 141.667 269.69 141.088C270.753 140.493 271.951 140.195 273.285 140.195C274.618 140.195 275.808 140.493 276.854 141.088C277.917 141.667 278.744 142.483 279.335 143.538C279.942 144.576 280.246 145.758 280.246 147.085C280.246 148.412 279.942 149.603 279.335 150.658C278.744 151.695 277.917 152.512 276.854 153.107C275.808 153.703 274.618 154 273.285 154ZM273.285 151.857C274.145 151.857 274.913 151.661 275.588 151.27C276.28 150.862 276.82 150.3 277.208 149.586C277.596 148.854 277.79 148.021 277.79 147.085C277.79 146.149 277.596 145.324 277.208 144.61C276.82 143.878 276.28 143.317 275.588 142.925C274.913 142.534 274.145 142.339 273.285 142.339C272.424 142.339 271.648 142.534 270.956 142.925C270.281 143.317 269.741 143.878 269.336 144.61C268.948 145.324 268.753 146.149 268.753 147.085C268.753 148.021 268.948 148.854 269.336 149.586C269.741 150.3 270.281 150.862 270.956 151.27C271.648 151.661 272.424 151.857 273.285 151.857Z" fill="#562212"/>
    <path d="M290.59 140.782C291.838 140.782 292.952 141.063 293.931 141.624C294.91 142.185 295.669 142.968 296.209 143.972C296.766 144.958 297.045 146.09 297.045 147.366C297.045 148.676 296.749 149.841 296.159 150.862C295.585 151.865 294.766 152.648 293.703 153.209C292.657 153.771 291.459 154.051 290.109 154.051C287.83 154.051 286.067 153.269 284.818 151.704C283.586 150.122 282.97 147.902 282.97 145.043C282.97 142.271 283.536 140.101 284.666 138.536C285.797 136.954 287.527 135.908 289.856 135.398L295.981 134.02L296.336 136.265L290.691 137.49C288.936 137.881 287.628 138.545 286.767 139.481C285.907 140.416 285.417 141.76 285.299 143.512C285.873 142.645 286.615 141.973 287.527 141.496C288.438 141.02 289.459 140.782 290.59 140.782ZM290.159 152.01C291.02 152.01 291.779 151.814 292.438 151.423C293.113 151.032 293.636 150.496 294.007 149.815C294.378 149.118 294.564 148.327 294.564 147.442C294.564 146.098 294.159 145.018 293.349 144.201C292.539 143.385 291.476 142.977 290.159 142.977C288.843 142.977 287.771 143.385 286.944 144.201C286.134 145.018 285.729 146.098 285.729 147.442C285.729 148.327 285.915 149.118 286.286 149.815C286.674 150.496 287.206 151.032 287.881 151.423C288.556 151.814 289.315 152.01 290.159 152.01Z" fill="#562212"/>
    <path d="M311.934 140.323V153.847H309.504V142.466H303.733L303.581 145.477C303.496 147.298 303.336 148.82 303.1 150.045C302.863 151.253 302.475 152.223 301.935 152.954C301.395 153.686 300.644 154.051 299.682 154.051C299.244 154.051 298.746 153.975 298.189 153.822L298.341 151.755C298.56 151.806 298.763 151.831 298.948 151.831C299.623 151.831 300.13 151.534 300.467 150.938C300.805 150.343 301.024 149.637 301.125 148.82C301.226 148.004 301.319 146.838 301.404 145.324L301.632 140.323H311.934Z" fill="#562212"/>
    <path d="M321.417 140.195C323.274 140.195 324.691 140.654 325.67 141.573C326.666 142.492 327.163 143.861 327.163 145.681V153.847H324.86V152.061C324.455 152.69 323.873 153.175 323.113 153.516C322.371 153.839 321.485 154 320.455 154C318.953 154 317.747 153.635 316.836 152.903C315.941 152.172 315.494 151.21 315.494 150.02C315.494 148.829 315.924 147.876 316.785 147.162C317.646 146.43 319.012 146.064 320.886 146.064H324.733V145.579C324.733 144.525 324.43 143.717 323.822 143.155C323.215 142.594 322.32 142.313 321.139 142.313C320.346 142.313 319.569 142.449 318.81 142.721C318.051 142.977 317.409 143.325 316.886 143.768L315.874 141.93C316.566 141.369 317.392 140.944 318.354 140.654C319.316 140.348 320.337 140.195 321.417 140.195ZM320.86 152.112C321.789 152.112 322.59 151.908 323.265 151.5C323.94 151.074 324.43 150.479 324.733 149.713V147.825H320.987C318.928 147.825 317.899 148.522 317.899 149.917C317.899 150.598 318.16 151.134 318.683 151.525C319.207 151.916 319.932 152.112 320.86 152.112Z" fill="#562212"/>
    <path d="M337.387 154C336.02 154 334.796 153.703 333.716 153.107C332.653 152.512 331.818 151.695 331.21 150.658C330.603 149.603 330.299 148.412 330.299 147.085C330.299 145.758 330.603 144.576 331.21 143.538C331.818 142.483 332.653 141.667 333.716 141.088C334.796 140.493 336.02 140.195 337.387 140.195C338.602 140.195 339.682 140.442 340.627 140.935C341.589 141.428 342.331 142.143 342.855 143.079L341.007 144.278C340.585 143.631 340.062 143.147 339.437 142.823C338.813 142.5 338.121 142.339 337.362 142.339C336.484 142.339 335.691 142.534 334.982 142.925C334.29 143.317 333.742 143.878 333.337 144.61C332.949 145.324 332.754 146.149 332.754 147.085C332.754 148.038 332.949 148.88 333.337 149.611C333.742 150.326 334.29 150.879 334.982 151.27C335.691 151.661 336.484 151.857 337.362 151.857C338.121 151.857 338.813 151.695 339.437 151.372C340.062 151.049 340.585 150.564 341.007 149.917L342.855 151.091C342.331 152.027 341.589 152.75 340.627 153.26C339.682 153.754 338.602 154 337.387 154Z" fill="#562212"/>
    <path d="M355.827 142.466H350.916V153.847H348.486V142.466H343.575V140.323H355.827V142.466Z" fill="#562212"/>
    <path d="M358.312 140.323H360.742V150.173L368.969 140.323H371.171V153.847H368.741V143.997L360.539 153.847H358.312V140.323Z" fill="#562212"/>
</svg>
