<svg xmlns="http://www.w3.org/2000/svg" display="none">
    <symbol id="instagram" viewBox="0 0 22 22">
        <path fill-rule="evenodd" clip-rule="evenodd"
              d="M5.68948 0H15.3289C18.4661 0 21.0183 2.55225 21.0183 5.68948V15.329C21.0183 18.4661 18.4661 21.0183 15.329 21.0183H5.68948C2.55225 21.0183 0 18.4661 0 15.329V5.68948C0 2.55225 2.55225 0 5.68948 0ZM4.76213 10.5092C4.76213 13.6782 7.34019 16.2562 10.5092 16.2562C13.6782 16.2562 16.2562 13.6782 16.2562 10.5092C16.2562 7.34019 13.6782 4.76213 10.5092 4.76213C7.34019 4.76213 4.76213 7.34019 4.76213 10.5092ZM14.6955 4.41929C14.6955 5.35577 15.4572 6.11747 16.3936 6.11747C17.3301 6.11747 18.092 5.35577 18.092 4.41929C18.092 3.4828 17.3301 2.72094 16.3936 2.72094C15.4572 2.72094 14.6955 3.4828 14.6955 4.41929ZM5.79817 10.5092C5.79817 7.91147 7.91164 5.79817 10.5092 5.79817C13.1069 5.79817 15.2202 7.91147 15.2202 10.5092C15.2202 13.1067 13.1069 15.2202 10.5092 15.2202C7.91164 15.2202 5.79817 13.1067 5.79817 10.5092Z"/>
    </symbol>

    <symbol id="facebook" viewBox="0 0 21 22">
        <path d="M17.9238 0.00927734H3.07617C1.38011 0.00927734 0 1.38939 0 3.08545V17.9331C0 19.6292 1.38011 21.0093 3.07617 21.0093H9.26953V13.5854H6.80859V9.89404H9.26953V7.39209C9.26953 5.35653 10.9254 3.70068 12.9609 3.70068H16.6934V7.39209H12.9609V9.89404H16.6934L16.0781 13.5854H12.9609V21.0093H17.9238C19.6199 21.0093 21 19.6292 21 17.9331V3.08545C21 1.38939 19.6199 0.00927734 17.9238 0.00927734Z"/>
    </symbol>

    <symbol id="vk" viewBox="0 0 22 14">
        <path d="M18.2561 7.46385C17.9004 7.00885 18.0021 6.80642 18.2561 6.39971C18.2606 6.39506 21.1968 2.28521 21.4993 0.89142L21.5012 0.890491C21.6515 0.382563 21.5012 0.00927734 20.7742 0.00927734H18.3688C17.7564 0.00927734 17.4741 0.329634 17.3228 0.688063C17.3228 0.688063 16.0981 3.65763 14.3656 5.58256C13.8064 6.13878 13.5479 6.31706 13.2426 6.31706C13.0923 6.31706 12.8585 6.13878 12.8585 5.63085V0.890491C12.8585 0.281349 12.6871 0.00927734 12.1802 0.00927734H8.39787C8.01378 0.00927734 7.78552 0.29342 7.78552 0.558063C7.78552 1.13563 8.6518 1.26842 8.74164 2.89342V6.41921C8.74164 7.19178 8.60322 7.33385 8.29612 7.33385C7.47843 7.33385 5.49377 4.35221 4.31765 0.939706C4.08022 0.277634 3.8483 0.0102058 3.23136 0.0102058H0.825029C0.138421 0.0102058 0 0.330563 0 0.688991C0 1.32228 0.817695 4.47106 3.80246 8.63106C5.7917 11.4706 8.59313 13.0093 11.1416 13.0093C12.6734 13.0093 12.8604 12.6676 12.8604 12.0798C12.8604 9.36649 12.7219 9.11021 13.4892 9.11021C13.8449 9.11021 14.4573 9.28849 15.8873 10.6581C17.5218 12.2822 17.7904 13.0093 18.7052 13.0093H21.1106C21.7963 13.0093 22.1438 12.6676 21.9439 11.9934C21.4865 10.5755 18.3954 7.65885 18.2561 7.46385Z"/>
    </symbol>

    <symbol id="arrow-bottom" viewBox="0 0 18 10">
        <path d="M1 1L9 9L17 1" stroke-width="2" stroke-linecap="round" stroke-linejoin="round"/>
    </symbol>

</svg>